<?xml version="1.0" encoding="UTF-8" standalone="no"?>
<svg
   xmlns:dc="http://purl.org/dc/elements/1.1/"
   xmlns:cc="http://creativecommons.org/ns#"
   xmlns:rdf="http://www.w3.org/1999/02/22-rdf-syntax-ns#"
   xmlns:svg="http://www.w3.org/2000/svg"
   xmlns="http://www.w3.org/2000/svg"
   xmlns:xlink="http://www.w3.org/1999/xlink"
   xmlns:sodipodi="http://sodipodi.sourceforge.net/DTD/sodipodi-0.dtd"
   xmlns:inkscape="http://www.inkscape.org/namespaces/inkscape"
   viewBox="0 0 30 30"
   id="svg2"
   version="1.1"
   inkscape:version="0.91 r13725"
   sodipodi:docname="left.svg"
   inkscape:export-filename="/home/naman/Documents/breeze_dark/title/left.png"
   inkscape:export-xdpi="89.800003"
   inkscape:export-ydpi="89.800003">
  <metadata
     id="metadata40">
    <rdf:RDF>
      <cc:Work
         rdf:about="">
        <dc:format>image/svg+xml</dc:format>
        <dc:type
           rdf:resource="http://purl.org/dc/dcmitype/StillImage" />
      </cc:Work>
    </rdf:RDF>
  </metadata>
  <sodipodi:namedview
     pagecolor="#ffffff"
     bordercolor="#666666"
     borderopacity="1"
     objecttolerance="10"
     gridtolerance="10"
     guidetolerance="10"
     inkscape:pageopacity="0"
     inkscape:pageshadow="2"
     inkscape:window-width="720"
     inkscape:window-height="480"
     id="namedview38"
     showgrid="false"
     inkscape:zoom="7.8666667"
     inkscape:cx="-23.898305"
     inkscape:cy="15"
     inkscape:window-x="646"
     inkscape:window-y="200"
     inkscape:window-maximized="0"
     inkscape:current-layer="g14" />
  <defs
     id="defs4">
    <linearGradient
       y2="12.318"
       x2="48.41"
       y1="32.21"
       x1="48.35"
       gradientTransform="matrix(.41317 0 0 1.49415 558.94 564.94)"
       gradientUnits="userSpaceOnUse"
       id="3"
       xlink:href="#2" />
    <linearGradient
       id="2">
      <stop
         stop-color="#515a63"
         id="stop8" />
      <stop
         offset="1"
         stop-color="#474f57"
         id="stop10" />
    </linearGradient>
    <linearGradient
       y2="12.318"
       x2="48.41"
       y1="32.21"
       x1="48.35"
       gradientTransform="matrix(.41317 0 0 1.29493 538.94 567.36)"
       gradientUnits="userSpaceOnUse"
       id="0"
       xlink:href="#2" />
    <linearGradient
       xlink:href="#2"
       id="1"
       x1="613.12"
       x2="583.12"
       gradientUnits="userSpaceOnUse" />
  </defs>
  <g
     transform="translate(-553.72-583.12)"
     id="g14">
    <g
       color="#000"
       id="g16"
       style="fill:#31363b;fill-opacity:1">
      <path
         fill="url(#0)"
         d="m553.72 583.12h10v26h-10z"
         id="path18"
         style="fill:#31363b;fill-opacity:1" />
      <rect
         width="30"
         height="30"
         x="583.12"
         y="-583.72"
         rx="4"
         transform="matrix(0 1-1 0 0 0)"
         fill="url(#1)"
         id="rect20"
         style="fill:#31363b;fill-opacity:1" />
      <path
         fill="url(#3)"
         d="m573.72 583.12h10v30h-10z"
         id="path22"
         style="fill:#31363b;fill-opacity:1" />
    </g>
    <path
       d="m 583.72,583.12 0,1 -30,0 0,-1 z"
       id="path24"
       inkscape:connector-curvature="0"
       style="fill:#3daee9;opacity:0.95000001"
       inkscape:export-xdpi="89.800003"
       inkscape:export-ydpi="89.800003" />
    <g
       transform="matrix(1.125 0 0 1.125 556.35-573.41)"
       fill="#f2f2f2"
       id="g26">
      <path
         d="m3 3v1 11 1 3h1 2 8 4 1v-15-1h-16m1 1h14v14h-4-8-2v-2-1-11"
         transform="translate(0 1030.36)"
         id="path28" />
      <path
         transform="matrix(.7071.70711.7071-.70711 0 0)"
         d="m740.39-731.9h3.243v1h-3.243z"
         id="path30" />
      <path
         transform="matrix(.7071-.70711.7071.70711 0 0)"
         d="m-734.44 742.92h3.243v1h-3.243z"
         id="path32" />
      <path
         d="m8.794 1042.86l.207-.207.207.207-.207.207z"
         fill-rule="evenodd"
         id="path34" />
      <path
         d="m10 1044.36h4v1h-4z"
         id="path36" />
    </g>
  </g>
</svg>
