<?xml version="1.0" encoding="UTF-8" standalone="no"?>
<!-- Created with Inkscape (http://www.inkscape.org/) -->

<svg
   xmlns:osb="http://www.openswatchbook.org/uri/2009/osb"
   xmlns:dc="http://purl.org/dc/elements/1.1/"
   xmlns:cc="http://creativecommons.org/ns#"
   xmlns:rdf="http://www.w3.org/1999/02/22-rdf-syntax-ns#"
   xmlns:svg="http://www.w3.org/2000/svg"
   xmlns="http://www.w3.org/2000/svg"
   xmlns:sodipodi="http://sodipodi.sourceforge.net/DTD/sodipodi-0.dtd"
   xmlns:inkscape="http://www.inkscape.org/namespaces/inkscape"
   width="222.129"
   height="222.129"
   id="svg2"
   version="1.1"
   inkscape:version="0.48.5 r10040"
   sodipodi:docname="gitbook.svg"
   inkscape:export-filename="/home/macrobull/Application/applications/icons/gitbook.png"
   inkscape:export-xdpi="103.72351"
   inkscape:export-ydpi="103.72351">
  <defs
     id="defs4">
    <linearGradient
       inkscape:collect="always"
       id="linearGradient5619"
       osb:paint="gradient">
      <stop
         style="stop-color:#202020;stop-opacity:1;"
         offset="0"
         id="stop5621" />
      <stop
         style="stop-color:#202020;stop-opacity:0;"
         offset="1"
         id="stop5623" />
    </linearGradient>
    <inkscape:perspective
       sodipodi:type="inkscape:persp3d"
       inkscape:vp_x="0 : 526.18109 : 1"
       inkscape:vp_y="0 : 1000 : 0"
       inkscape:vp_z="744.09448 : 526.18109 : 1"
       inkscape:persp3d-origin="372.04724 : 350.78739 : 1"
       id="perspective3014" />
    <filter
       color-interpolation-filters="sRGB"
       inkscape:collect="always"
       id="filter3943-8">
      <feGaussianBlur
         inkscape:collect="always"
         stdDeviation="3.2658826"
         id="feGaussianBlur3945-4" />
    </filter>
    <filter
       inkscape:collect="always"
       id="filter5714"
       color-interpolation-filters="sRGB">
      <feGaussianBlur
         inkscape:collect="always"
         stdDeviation="4.9799664"
         id="feGaussianBlur5716" />
    </filter>
  </defs>
  <sodipodi:namedview
     id="base"
     pagecolor="#ffffff"
     bordercolor="#666666"
     borderopacity="1.0"
     inkscape:pageopacity="0.0"
     inkscape:pageshadow="2"
     inkscape:zoom="6.1225685"
     inkscape:cx="111.0645"
     inkscape:cy="149.46816"
     inkscape:document-units="px"
     inkscape:current-layer="layer2"
     showgrid="false"
     inkscape:snap-page="true"
     inkscape:window-width="1850"
     inkscape:window-height="1054"
     inkscape:window-x="68"
     inkscape:window-y="-1"
     inkscape:window-maximized="1"
     fit-margin-top="0"
     fit-margin-left="0"
     fit-margin-right="0"
     fit-margin-bottom="0"
     borderlayer="false" />
  <metadata
     id="metadata7">
    <rdf:RDF>
      <cc:Work
         rdf:about="">
        <dc:format>image/svg+xml</dc:format>
        <dc:type
           rdf:resource="http://purl.org/dc/dcmitype/StillImage" />
        <dc:title></dc:title>
      </cc:Work>
    </rdf:RDF>
  </metadata>
  <g
     inkscape:label="Layer 1"
     inkscape:groupmode="layer"
     id="layer1"
     style="display:inline"
     transform="translate(-97.551815,-756.96214)"
     sodipodi:insensitive="true">
    <path
       sodipodi:type="arc"
       style="fill:#ffffff;fill-opacity:0.22926833;fill-rule:evenodd;stroke:#000000;stroke-width:8;stroke-linecap:butt;stroke-linejoin:miter;stroke-miterlimit:4;stroke-opacity:1;stroke-dasharray:none;filter:url(#filter5714)"
       id="path3012"
       sodipodi:cx="208.92857"
       sodipodi:cy="870.93359"
       sodipodi:rx="99.599327"
       sodipodi:ry="99.599327"
       d="m 308.5279,870.93359 c 0,55.00719 -44.59214,99.59933 -99.59933,99.59933 -55.00719,0 -99.59932,-44.59214 -99.59932,-99.59933 0,-55.00719 44.59213,-99.59932 99.59932,-99.59932 55.00719,0 99.59933,44.59213 99.59933,99.59932 z"
       transform="matrix(0.96121735,0,0,0.96121735,7.781966,30.866405)"
       inkscape:export-xdpi="103.72"
       inkscape:export-ydpi="103.72" />
    <path
       transform="translate(-0.35714877,-2.9999827)"
       sodipodi:type="arc"
       style="fill:#87f1d0;fill-opacity:1;fill-rule:evenodd;stroke:none"
       id="path3012-6"
       sodipodi:cx="208.92857"
       sodipodi:cy="870.93359"
       sodipodi:rx="99.599327"
       sodipodi:ry="99.599327"
       d="m 308.5279,870.93359 c 0,55.00719 -44.59214,99.59933 -99.59933,99.59933 -55.00719,0 -99.59932,-44.59214 -99.59932,-99.59933 0,-55.00719 44.59213,-99.59932 99.59932,-99.59932 55.00719,0 99.59933,44.59213 99.59933,99.59932 z"
       inkscape:export-filename="/home/macrobull/Application/applications/icons/path3012.png"
       inkscape:export-xdpi="103.72"
       inkscape:export-ydpi="103.72" />
  </g>
  <g
     inkscape:groupmode="layer"
     id="layer2"
     inkscape:label="Layer"
     style="display:inline"
     transform="translate(-97.551815,-756.96214)">
    <path
       style="fill:#000000;fill-opacity:0.11764706;stroke:none;display:inline"
       d="m 209.07488,967.62042 -62.89135,-57.68359 0,-47.99431 0,-47.74176 10.5848,0.68432 c 19.75362,1.2771 37.16069,5.67637 47.7926,12.07858 l 5.6226,3.38575 5.6226,-3.38575 c 10.6219,-6.39618 28.68572,-10.95557 48.11453,-12.14433 l 10.26287,-0.62794 30.71773,28.58209 c 16.77425,62.34142 -30.86515,124.78032 -95.82638,124.84694 z m -8.52084,-127.84118 c -4.03863,-2.95862 -28.55312,-9.28392 -35.98098,-9.28392 l -2.38953,0 0,32.5 0,32.5 2.25,0.009 c 1.2375,0.005 4.6125,0.29246 7.5,0.63929 l 5.25,0.63059 0,-16.74493 c 0,-16.40231 -0.0511,-16.80573 -2.5,-19.71602 -3.35476,-3.9869 -3.39118,-9.67005 -0.0866,-13.51187 2.0659,-2.40175 3.15831,-2.80576 7.58658,-2.80576 4.42827,0 5.52068,0.40401 7.58658,2.80576 3.3046,3.84182 3.26818,9.52497 -0.0866,13.51187 -2.46432,2.92868 -2.5,3.22835 -2.5,20.99636 l 0,18.02528 4.75,1.61646 c 2.6125,0.88906 5.875,2.23894 7.25,2.99973 l 2.5,1.38325 0.26526,-32.16935 c 0.23919,-29.00843 0.10215,-32.28885 -1.39475,-33.38544 z m 35.30575,59.14629 c 5.16208,-1.30947 12.29667,-2.6791 15.85466,-3.04362 l 6.46908,-0.66278 0,-32.36191 0,-32.3619 -2.38954,0 c -6.99546,0 -28.09192,5.24189 -34.86046,8.66186 l -2.75,1.3895 0,22.97432 c 0,12.63588 0.37955,22.97432 0.84345,22.97432 1.7138,0 12.62621,-4.07771 14.9008,-5.56808 3.03325,-1.98746 6.24723,-7.27601 6.25201,-10.28756 0.002,-1.29561 -1.12126,-3.69263 -2.49626,-5.32673 -7.6638,-9.10791 4.47307,-22.13285 13.79274,-14.80199 3.85072,3.02897 5.16223,7.95967 3.30165,12.41266 -0.82725,1.9799 -2.19941,3.86664 -3.04925,4.19275 -1.00795,0.38678 -1.54515,1.87815 -1.54515,4.28959 0,5.31117 -4.52847,13.73525 -9.20442,17.12249 -2.16384,1.56748 -6.94056,3.83755 -10.61491,5.04459 -10.93512,3.59224 -12.18066,4.45817 -12.18066,8.46828 l 0,3.49465 4.14533,-2.11479 c 2.27993,-1.16314 8.36885,-3.18618 13.53093,-4.49565 z m 11.36656,-35.45313 c 1.05124,-0.5626 2.40364,-1.94278 3.00533,-3.06706 1.49508,-2.79358 -1.18552,-6.91002 -4.49977,-6.91002 -5.2206,0 -7.51345,6.5102 -3.32587,9.4433 2.63499,1.84562 2.41471,1.82122 4.82031,0.53378 z m -62.26533,-5.53378 c 3.18946,-2.23398 3.03235,-7.11719 -0.27749,-8.62525 -6.02644,-2.74583 -10.67207,4.84674 -5.27749,8.62525 1.22237,0.85618 2.47225,1.5567 2.77749,1.5567 0.30524,0 1.55511,-0.70052 2.77749,-1.5567 z"
       id="path3006-6"
       inkscape:connector-curvature="0"
       sodipodi:nodetypes="ccccsscssccccsccccscssssssscsscsccsscccsscssscsssssssscssssssssssss" />
    <path
       style="fill:#000000;fill-opacity:0.15686275;stroke:none;display:inline"
       d="m 208.93286,912.41928 -62.64715,-2.63028 0,-47.99431 0,-47.9943 10.5848,0.68432 c 19.75362,1.2771 37.16069,5.67637 47.7926,12.07858 l 5.6226,3.38575 5.6226,-3.38575 c 10.6219,-6.39618 28.68572,-10.95557 48.11453,-12.14433 l 10.26287,-0.62794 -4.79823,42.2012 c 3.36317,30.42456 1.86427,30.21669 -5.06845,47.08315 -18.57786,4.09793 -24.17186,2.35422 -55.48617,9.34391 z m -8.27664,-73.04041 c -4.03863,-2.95862 -28.55312,-9.28392 -35.98098,-9.28392 l -2.38953,0 0,32.5 0,32.5 2.25,0.009 c 1.2375,0.005 4.6125,0.29246 7.5,0.63929 l 5.25,0.63059 0,-16.74493 c 0,-16.40231 -0.0511,-16.80573 -2.5,-19.71602 -3.35476,-3.9869 -3.39118,-9.67005 -0.0866,-13.51187 2.0659,-2.40175 3.15831,-2.80576 7.58658,-2.80576 4.42827,0 5.52068,0.40401 7.58658,2.80576 3.3046,3.84182 25.41975,24.87609 25.41975,24.87609 1.30298,3.59892 2.67764,39.42368 -13.91244,33.06195 l -14.09391,-5.40453 14.5,5.99944 c 2.54998,1.05507 -3.875,-2.14404 -2.5,-1.38325 l 2.5,1.38325 0,0 c 0,0 0.36741,-64.4582 -1.12949,-65.55479 z m 35.30575,59.14629 c 5.16208,-1.30947 12.29667,-2.6791 15.85466,-3.04362 l 6.46908,-0.66278 0.75761,-33.87714 -0.75761,-30.84667 -2.38954,0 c -6.99546,0 -28.09192,5.24189 -34.86046,8.66186 l -2.75,1.3895 0,22.97432 c 0,12.63588 0.37955,22.97432 0.84345,22.97432 1.7138,0 12.62621,-4.07771 14.9008,-5.56808 3.03325,-1.98746 6.24723,-7.27601 6.25201,-10.28756 0.002,-1.29561 -1.12126,-3.69263 -2.49626,-5.32673 -7.6638,-9.10791 4.47307,-22.13285 13.79274,-14.80199 3.85072,3.02897 15.76883,13.51551 13.90825,17.9685 2.59454,15.35721 8.83482,27.86067 -9.26144,33.93241 -10.93512,3.59224 -37.93955,3.1241 -37.93955,3.1241 l 0,0 4.14533,-2.11479 c 2.27993,-1.16314 8.36885,-3.18618 13.53093,-4.49565 z m 11.36656,-35.45313 c 1.05124,-0.5626 2.40364,-1.94278 3.00533,-3.06706 1.49508,-2.79358 3.86524,8.24227 0.55099,8.24227 -5.2206,0 -12.56421,-8.64209 -8.37663,-5.70899 2.63499,1.84562 2.41471,1.82122 4.82031,0.53378 z m -62.26533,-5.53378 c 3.18946,-2.23398 11.36611,19.90439 8.05627,18.39633 -6.02644,-2.74583 -19.00583,-22.17484 -13.61125,-18.39633 1.22237,0.85618 2.47225,1.5567 2.77749,1.5567 0.30524,0 1.55511,-0.70052 2.77749,-1.5567 z"
       id="path3006-6-2"
       inkscape:connector-curvature="0"
       sodipodi:nodetypes="ccccsscsscccccsccccscssssssscsscsccsscccsscssscssccscssssssssssss" />
  </g>
  <g
     inkscape:groupmode="layer"
     id="layer3"
     inkscape:label="ll"
     sodipodi:insensitive="true"
     style="display:inline"
     transform="translate(-97.551815,-756.96214)">
    <path
       style="fill:#5d5d5d;fill-opacity:1;stroke:none;display:inline"
       d="m 206.32523,923.47187 c -7.05008,-5.88211 -29.39653,-11.71585 -48.87728,-12.75985 l -11.3819,-0.60997 0,-47.99431 0,-47.9943 10.5848,0.68432 c 19.75362,1.2771 37.16069,5.67637 47.7926,12.07858 l 5.6226,3.38575 5.6226,-3.38575 c 10.6219,-6.39618 28.68572,-10.95557 48.11453,-12.14433 l 10.26287,-0.62794 0,47.99899 0,47.99899 -11.3819,0.60997 c -19.48562,1.04426 -41.31453,6.73635 -48.99137,12.77495 -3.02265,2.37762 -4.50337,2.37458 -7.36755,-0.0151 z m -5.88867,-83.77995 C 196.39793,836.7333 171.88344,830.408 164.45558,830.408 l -2.38953,0 0,32.5 0,32.5 2.25,0.009 c 1.2375,0.005 4.6125,0.29246 7.5,0.63929 l 5.25,0.63059 0,-16.74493 c 0,-16.40231 -0.0511,-16.80573 -2.5,-19.71602 -3.35476,-3.9869 -3.39118,-9.67005 -0.0866,-13.51187 2.0659,-2.40175 3.15831,-2.80576 7.58658,-2.80576 4.42827,0 5.52068,0.40401 7.58658,2.80576 3.3046,3.84182 3.26818,9.52497 -0.0866,13.51187 -2.46432,2.92868 -2.5,3.22835 -2.5,20.99636 l 0,18.02528 4.75,1.61646 c 2.6125,0.88906 5.875,2.23894 7.25,2.99973 l 2.5,1.38325 0.26526,-32.16935 c 0.23919,-29.00843 0.10215,-32.28885 -1.39475,-33.38544 z m 35.30575,59.14629 c 5.16208,-1.30947 12.29668,-2.6791 15.85467,-3.04362 l 6.46907,-0.66278 0,-32.36191 0,-32.3619 -2.38953,0 c -6.99546,0 -28.09193,5.24189 -34.86047,8.66186 l -2.75,1.3895 0,22.97432 c 0,12.63588 0.37955,22.97432 0.84345,22.97432 1.7138,0 12.62621,-4.07771 14.9008,-5.56808 3.03325,-1.98746 6.24723,-7.27601 6.25201,-10.28756 0.002,-1.29561 -1.12126,-3.69263 -2.49626,-5.32673 -7.6638,-9.10791 4.47307,-22.13285 13.79275,-14.80199 3.85072,3.02897 5.16223,7.95967 3.30165,12.41266 -0.82725,1.9799 -2.19941,3.86664 -3.04925,4.19275 -1.00795,0.38678 -1.54515,1.87815 -1.54515,4.28959 0,5.31117 -4.52848,13.73525 -9.20443,17.12249 -2.16384,1.56748 -6.94056,3.83755 -10.61491,5.04459 -10.93512,3.59224 -12.18066,4.45817 -12.18066,8.46828 l 0,3.49465 4.14533,-2.11479 c 2.27993,-1.16314 8.36885,-3.18618 13.53093,-4.49565 z m 11.36656,-35.45313 c 1.05124,-0.5626 2.40364,-1.94278 3.00533,-3.06706 1.49508,-2.79358 -1.18552,-6.91002 -4.49977,-6.91002 -5.2206,0 -7.51345,6.5102 -3.32587,9.4433 2.63499,1.84562 2.41471,1.82122 4.82031,0.53378 z m -62.26533,-5.53378 c 3.18946,-2.23398 3.03235,-7.11719 -0.27749,-8.62525 -6.02644,-2.74583 -10.67207,4.84674 -5.27749,8.62525 1.22237,0.85618 2.47225,1.5567 2.77749,1.5567 0.30524,0 1.55511,-0.70052 2.77749,-1.5567 z"
       id="path3006"
       inkscape:connector-curvature="0" />
    <path
       style="fill:#5d5d5d;fill-opacity:1;stroke:none;display:inline;filter:url(#filter3943-8)"
       d="m 206.4427,923.05412 c -7.05008,-5.88211 -29.39653,-11.71585 -48.87728,-12.75985 l -11.3819,-0.60997 0,-47.99431 0,-47.9943 10.5848,0.68432 c 19.75362,1.2771 37.16069,5.67637 47.7926,12.07858 l 5.6226,3.38575 5.6226,-3.38575 c 10.6219,-6.39618 28.68572,-10.95557 48.11453,-12.14433 l 10.26287,-0.62794 0,47.99899 0,47.99899 -11.3819,0.60997 c -19.48562,1.04426 -41.31453,6.73635 -48.99137,12.77495 -3.02265,2.37762 -4.50337,2.37458 -7.36755,-0.0151 z m -5.88867,-83.77995 c -4.03863,-2.95862 -28.55312,-9.28392 -35.98098,-9.28392 l -2.38953,0 0,32.5 0,32.5 2.25,0.009 c 1.2375,0.005 4.6125,0.29246 7.5,0.63929 l 5.25,0.63059 0,-16.74493 c 0,-16.40231 -0.0511,-16.80573 -2.5,-19.71602 -3.35476,-3.9869 -3.39118,-9.67005 -0.0866,-13.51187 2.0659,-2.40175 3.15831,-2.80576 7.58658,-2.80576 4.42827,0 5.52068,0.40401 7.58658,2.80576 3.3046,3.84182 3.26818,9.52497 -0.0866,13.51187 -2.46432,2.92868 -2.5,3.22835 -2.5,20.99636 l 0,18.02528 4.75,1.61646 c 2.6125,0.88906 5.875,2.23894 7.25,2.99973 l 2.5,1.38325 0.26526,-32.16935 c 0.23919,-29.00843 0.10215,-32.28885 -1.39475,-33.38544 z m 35.30575,59.14629 c 5.16208,-1.30947 12.29668,-2.6791 15.85467,-3.04362 l 6.46907,-0.66278 0,-32.36191 0,-32.3619 -2.38953,0 c -6.99546,0 -28.09193,5.24189 -34.86047,8.66186 l -2.75,1.3895 0,22.97432 c 0,12.63588 0.37955,22.97432 0.84345,22.97432 1.7138,0 12.62621,-4.07771 14.9008,-5.56808 3.03325,-1.98746 6.24723,-7.27601 6.25201,-10.28756 0.002,-1.29561 -1.12126,-3.69263 -2.49626,-5.32673 -7.6638,-9.10791 4.47307,-22.13285 13.79275,-14.80199 3.85072,3.02897 5.16223,7.95967 3.30165,12.41266 -0.82725,1.9799 -2.19941,3.86664 -3.04925,4.19275 -1.00795,0.38678 -1.54515,1.87815 -1.54515,4.28959 0,5.31117 -4.52848,13.73525 -9.20443,17.12249 -2.16384,1.56748 -6.94056,3.83755 -10.61491,5.04459 -10.93512,3.59224 -12.18066,4.45817 -12.18066,8.46828 l 0,3.49465 4.14533,-2.11479 c 2.27993,-1.16314 8.36885,-3.18618 13.53093,-4.49565 z m 11.36656,-35.45313 c 1.05124,-0.5626 2.40364,-1.94278 3.00533,-3.06706 1.49508,-2.79358 -1.18552,-6.91002 -4.49977,-6.91002 -5.2206,0 -7.51345,6.5102 -3.32587,9.4433 2.63499,1.84562 2.41471,1.82122 4.82031,0.53378 z m -62.26533,-5.53378 c 3.18946,-2.23398 3.03235,-7.11719 -0.27749,-8.62525 -6.02644,-2.74583 -10.67207,4.84674 -5.27749,8.62525 1.22237,0.85618 2.47225,1.5567 2.77749,1.5567 0.30524,0 1.55511,-0.70052 2.77749,-1.5567 z"
       id="path3006-1"
       inkscape:connector-curvature="0" />
  </g>
</svg>
